<svg xmlns="http://www.w3.org/2000/svg" id="Layer_1" viewBox="186.3700408935547 186.3300018310547 1627.3201446533203 1627.3203887939453"><defs><style>.cls-1{fill:#cbff8c;}</style></defs><path class="cls-1" d="M1813.18,1021.09v228.92c0,11.63-9.43,21.06-21.06,21.06h-228.97c-11.63,0-21.06,9.43-21.06,21.06v228.92c0,11.63-9.43,21.06-21.06,21.06h-228.92c-11.63,0-21.06,9.43-21.06,21.06v228.92c0,11.63-9.43,21.06-21.06,21.06h-228.92c-11.63,0-21.06-9.43-21.06-21.06v-228.92c0-11.63-9.43-21.06-21.06-21.06h-228.92c-11.63,0-21.06-9.43-21.06-21.06v-228.92c0-11.63,9.43-21.06,21.06-21.06h499.97c11.63,0,21.06-9.43,21.06-21.06v-499.97c0-11.63,9.43-21.06,21.06-21.06h228.92c11.63,0,21.06,9.43,21.06,21.06v228.92c0,11.63,9.43,21.06,21.06,21.06h228.97c11.63,0,21.06,9.43,21.06,21.06Z" fill="black"/><path class="cls-1" d="M1271.03,478.94v228.97c0,11.63-9.43,21.06-21.06,21.06h-228.92c-11.63,0-21.06,9.43-21.06,21.06v228.92c0,11.63-9.43,21.06-21.06,21.06h-228.92c-11.63,0-21.06,9.43-21.06,21.06v228.92c0,11.63-9.43,21.06-21.06,21.06h-228.92c-11.63,0-21.06-9.43-21.06-21.06v-228.92c0-11.63-9.43-21.06-21.06-21.06h-228.92c-11.63,0-21.06-9.43-21.06-21.06v-228.92c0-11.63,9.43-21.06,21.06-21.06h499.97c11.63,0,21.06-9.43,21.06-21.06V207.89c0-11.63,9.43-21.06,21.06-21.06h228.92c11.63,0,21.06,9.43,21.06,21.06v228.92c0,11.63,9.43,21.06,21.06,21.06h228.92c11.63,0,21.06,9.43,21.06,21.06Z" fill="black"/></svg>