<?xml version="1.0" encoding="UTF-8"?><svg id="Layer_1" xmlns="http://www.w3.org/2000/svg" viewBox="0 0 3000 1500"><defs><style>.cls-1{fill:#f9f6ee;}</style></defs><path class="cls-1" d="M864.67,758.2v109.25c0,5.55-4.5,10.05-10.05,10.05h-109.27c-5.55,0-10.05,4.5-10.05,10.05v109.25c0,5.55-4.5,10.05-10.05,10.05h-109.25c-5.55,0-10.05,4.5-10.05,10.05v109.25c0,5.55-4.5,10.05-10.05,10.05h-109.25c-5.55,0-10.05-4.5-10.05-10.05v-109.25c0-5.55-4.5-10.05-10.05-10.05h-109.25c-5.55,0-10.05-4.5-10.05-10.05v-109.25c0-5.55,4.5-10.05,10.05-10.05h238.61c5.55,0,10.05-4.5,10.05-10.05v-238.61c0-5.55,4.5-10.05,10.05-10.05h109.25c5.55,0,10.05,4.5,10.05,10.05v109.25c0,5.55,4.5,10.05,10.05,10.05h109.27c5.55,0,10.05,4.5,10.05,10.05Z"/><path class="cls-1" d="M605.93,499.46v109.27c0,5.55-4.5,10.05-10.05,10.05h-109.25c-5.55,0-10.05,4.5-10.05,10.05v109.25c0,5.55-4.5,10.05-10.05,10.05h-109.25c-5.55,0-10.05,4.5-10.05,10.05v109.25c0,5.55-4.5,10.05-10.05,10.05h-109.25c-5.55,0-10.05-4.5-10.05-10.05v-109.25c0-5.55-4.5-10.05-10.05-10.05h-109.25c-5.55,0-10.05-4.5-10.05-10.05v-109.25c0-5.55,4.5-10.05,10.05-10.05h238.61c5.55,0,10.05-4.5,10.05-10.05v-238.63c0-5.55,4.5-10.05,10.05-10.05h109.25c5.55,0,10.05,4.5,10.05,10.05v109.25c0,5.55,4.5,10.05,10.05,10.05h109.25c5.55,0,10.05,4.5,10.05,10.05Z"/><path class="cls-1" d="M1151.76,658.1h-58.37v180.08h58.62c45.95,0,75.51-30.32,75.51-81.48v-19.12c0-51.4-29.81-79.48-75.76-79.48ZM1192.75,752.98c0,44.46-18.39,58.37-40.5,58.37h-24.09v-126.43h24.09c22.11,0,40.5,11.66,40.5,56.64v11.42Z"/><path class="cls-1" d="M1377.04,811.6v-70.8c0-16.14-9.68-26.83-29.57-26.83h-84.69v26.83h75c2.74,0,4.48,1.74,4.48,4.48v20.37h-34.02c-40.99,0-53.16,22.35-53.16,39.74s12.91,36.51,40.99,36.51c23.84,0,37.24-13.43,43.7-27.32h2.49v8.19c0,9.44,5.97,15.41,15.16,15.41h38.98v-26.58h-19.37ZM1342.26,797.69c-1.98,9.68-13.91,23.11-31.79,23.11-12.91,0-21.62-7.21-21.62-17.9s8.19-19.12,24.85-19.12h28.56v13.91Z"/><path class="cls-1" d="M1518.56,714.22l-20.86,56.88-14.16,42.97h-2.23l-14.16-42.97-20.61-56.88h-35.02l49.67,124.2h9.44l-11.66,29.54c-1.25,3.5-4.23,5.48-7.95,5.48l-27.83.24v26.58h24.85c20.86,0,33.04-11.93,39.49-27.83l66.05-158.22h-35.02Z"/><path class="cls-1" d="M1700.53,710.26c-39,0-64.09,25.09-64.09,62.33v6.97c0,37.24,25.09,62.33,64.34,62.33s63.83-25.09,63.83-62.33v-6.97c0-37.24-25.09-62.33-64.07-62.33ZM1729.83,778.07c0,26.83-13.16,37-29.3,37s-29.32-10.17-29.32-37v-3.99c0-26.83,13.18-37.24,29.32-37.24s29.3,10.42,29.3,37.24v3.99Z"/><path class="cls-1" d="M1924.83,678.72v-26.83h-50.18c-19.64,0-28.56,9.93-28.56,25.82v36.27h-45.46v26.83h45.46v70.55h-49.18v26.83h122.2v-26.83h-38.25v-70.55h43.97v-26.83h-26.09c-9.19,0-12.91,2.25-15.9,6.21h-1.98v-41.47h43.97Z"/><rect class="cls-1" x="2068.13" y="761.88" width="841.88" height="28.39"/><path class="cls-1" d="M1206.91,360.05l-29.32,81.97h-3.23l-29.3-81.97h-51.67v180.08h34.53v-149.29h2.23l36.53,99.87h18.37l36.75-99.87h2.25v149.29h34.53v-180.08h-51.67Z"/><path class="cls-1" d="M1351.7,412.21c-38.98,0-64.07,25.09-64.07,62.33v6.97c0,37.24,25.09,62.33,64.31,62.33s63.85-25.09,63.85-62.33v-6.97c0-37.24-25.09-62.33-64.09-62.33ZM1381.02,480.02c0,26.83-13.18,37-29.32,37s-29.3-10.17-29.3-37v-3.99c0-26.83,13.16-37.24,29.3-37.24s29.32,10.42,29.32,37.24v3.99Z"/><path class="cls-1" d="M1553.65,442.76h30.79v-26.83h-20.13c-23.08,0-38.49,7.21-43.46,30.05h-1.98v-18.12c0-8.19-4.23-11.93-12.42-11.93h-56.88v26.83h34.26v70.55h-34.02v26.83h112.76v-26.83h-43.7v-39.74c.98-20.37,11.42-30.81,34.77-30.81Z"/><path class="cls-1" d="M1673.59,412.21c-38.98,0-64.07,25.09-64.07,62.33v6.97c0,37.24,25.09,62.33,64.31,62.33s63.85-25.09,63.85-62.33v-6.97c0-37.24-25.09-62.33-64.09-62.33ZM1702.92,480.02c0,26.83-13.18,37-29.32,37s-29.3-10.17-29.3-37v-3.99c0-26.83,13.16-37.24,29.3-37.24s29.32,10.42,29.32,37.24v3.99Z"/><path class="cls-1" d="M1866.59,488.95c-2.49,20.13-14.89,28.07-29.57,28.07-16.38,0-30.05-10.42-30.05-37.24v-3.99c0-26.83,13.43-37.24,29.81-37.24,15.16,0,27.07,8.93,29.81,27.56h34.77c-4.72-38.49-31.3-53.9-65.07-53.9-38.25,0-64.09,25.09-64.09,62.09v6.97c0,37.24,26.83,62.58,64.83,62.58,35.78,0,61.36-21.62,64.58-54.9h-35.02Z"/><path class="cls-1" d="M2033.49,488.95c-2.47,20.13-14.89,28.07-29.54,28.07-16.41,0-30.05-10.42-30.05-37.24v-3.99c0-26.83,13.4-37.24,29.79-37.24,15.16,0,27.07,8.93,29.81,27.56h34.77c-4.72-38.49-31.3-53.9-65.07-53.9-38.25,0-64.07,25.09-64.07,62.09v6.97c0,37.24,26.8,62.58,64.83,62.58,35.75,0,61.33-21.62,64.56-54.9h-35.02Z"/><path class="cls-1" d="M2223.74,513.55v-70.8c0-16.14-9.68-26.83-29.54-26.83h-84.71v26.83h75c2.74,0,4.48,1.74,4.48,4.48v20.37h-34.02c-40.99,0-53.16,22.35-53.16,39.74s12.91,36.51,40.99,36.51c23.84,0,37.27-13.4,43.72-27.32h2.47v8.19c0,9.44,5.97,15.41,15.16,15.41h38.98v-26.58h-19.37ZM2188.97,499.64c-1.98,9.68-13.91,23.11-31.79,23.11-12.91,0-21.62-7.21-21.62-17.9s8.22-19.12,24.85-19.12h28.56v13.91Z"/><path class="cls-1" d="M2361.35,412.21c-15.41,0-36.02,4.72-48.44,23.11h-2.23v-19.39h-34.77v124.2h35.02v-82.46c5.97-11.69,19.12-19.39,31.55-19.39,9.19,0,19.37,4.23,19.37,24.36v77.5h35.02v-86.45c0-31.03-12.91-41.47-35.51-41.47Z"/><rect class="cls-1" x="2540.16" y="463.83" width="369.85" height="28.39"/><path class="cls-1" d="M1206.91,956.15l-29.32,81.97h-3.23l-29.3-81.97h-51.67v180.08h34.53v-149.29h2.23l36.53,99.85h18.37l36.75-99.85h2.25v149.29h34.53v-180.08h-51.67Z"/><path class="cls-1" d="M1410.08,1109.65v-70.8c0-16.14-9.68-26.83-29.57-26.83h-84.69v26.83h75c2.74,0,4.48,1.74,4.48,4.48v20.37h-34.02c-40.99,0-53.16,22.35-53.16,39.74s12.91,36.51,40.99,36.51c23.84,0,37.24-13.43,43.72-27.32h2.47v8.19c0,9.44,5.97,15.41,15.16,15.41h38.98v-26.58h-19.37ZM1375.3,1095.73c-1.98,9.68-13.91,23.11-31.79,23.11-12.91,0-21.62-7.21-21.62-17.9s8.22-19.12,24.85-19.12h28.56v13.91Z"/><path class="cls-1" d="M1578.07,1038.85v-26.83h-44.21c-9.44,0-12.91,2.25-15.9,6.21h-1.49v-48.42h-35.02v42.21h-41.99v26.83h41.99v71.53c0,15.9,9.19,25.85,28.56,25.85h68.06v-26.83h-61.6v-70.55h61.6Z"/><path class="cls-1" d="M1693.3,1008.31c-7.19,0-26.56.73-38.25,23.09h-2.23v-81.46h-34.77v186.29h35.02v-80.23c0-9.93,11.66-21.62,26.58-21.62,11.42,0,24.33,6.72,24.33,26.83v75.03h35.02v-83.95c0-31.06-15.65-43.97-45.7-43.97Z"/><path class="cls-1" d="M1904.19,1075.61c0-44.46-24.36-67.3-64.34-67.3s-64.09,23.84-64.09,62.33v6.97c0,38.49,25.6,62.33,65.1,62.33,33.01,0,56.37-16.38,62.33-46.19h-34.77c-3.72,18.88-14.89,24.33-27.56,24.33-16.16,0-29.08-9.93-30.05-37.51h93.39v-4.96ZM1811.54,1062.45c1.98-23.84,13.91-32.28,28.32-32.28s26.83,7.95,28.56,32.28h-56.88Z"/><path class="cls-1" d="M2080.53,1008.31c-6.94,0-24.09.73-33.77,23.09h-2.01c-4.45-16.63-18.12-23.09-32.77-23.09-6.72,0-24.09.73-34.04,23.09h-2.23v-19.37h-34.77v124.2h35.02v-81.73c0-10.17,7.7-20.13,20.37-20.13,7.95,0,13.65,3.99,13.65,17.9v83.95h34.77v-81.97c0-10.17,8.22-19.88,20.13-19.88,7.95,0,13.67,4.23,13.67,18.63v83.22h35.02v-90.41c0-25.33-12.91-37.51-33.04-37.51Z"/><path class="cls-1" d="M2267.83,1109.65v-70.8c0-16.14-9.68-26.83-29.54-26.83h-84.71v26.83h75.03c2.71,0,4.45,1.74,4.45,4.48v20.37h-34.02c-40.99,0-53.14,22.35-53.14,39.74s12.91,36.51,40.96,36.51c23.84,0,37.27-13.43,43.72-27.32h2.47v8.19c0,9.44,5.97,15.41,15.16,15.41h39v-26.58h-19.39ZM2233.06,1095.73c-1.98,9.68-13.89,23.11-31.79,23.11-12.91,0-21.59-7.21-21.59-17.9s8.19-19.12,24.85-19.12h28.54v13.91Z"/><path class="cls-1" d="M2435.83,1038.85v-26.83h-44.21c-9.42,0-12.91,2.25-15.9,6.21h-1.49v-48.42h-35.02v42.21h-41.96v26.83h41.96v71.53c0,15.9,9.19,25.85,28.56,25.85h68.06v-26.83h-61.6v-70.55h61.6Z"/><path class="cls-1" d="M2563.5,1109.4v-71.55c0-15.9-8.95-25.82-28.56-25.82h-55.39v26.83h49.18v70.55h-49.18v26.83h123.93v-26.83h-39.98Z"/><path class="cls-1" d="M2722.25,1085.05c-2.49,20.13-14.92,28.07-29.57,28.07-16.38,0-30.05-10.44-30.05-37.24v-3.99c0-26.83,13.43-37.24,29.81-37.24,15.16,0,27.07,8.93,29.81,27.56h34.77c-4.72-38.49-31.3-53.9-65.07-53.9-38.27,0-64.09,25.09-64.09,62.09v6.94c0,37.27,26.83,62.6,64.83,62.6,35.78,0,61.36-21.62,64.58-54.9h-35.02Z"/><path class="cls-1" d="M2882.21,1065.44l-30.3-4.96c-17.63-2.74-27.58-6.97-27.58-17.14,0-7.7,4.96-13.67,23.6-13.67,23.11,0,32.79,8.95,34.04,20.62h28.05c-.73-30.54-28.32-43.21-61.6-43.21s-53.63,14.16-53.63,36.51v2.49c0,15.9,12.64,29.81,33.53,33.28l30.05,4.96c16.63,2.98,21.1,6.7,21.1,14.16,0,13.4-13.91,18.61-28.07,18.61-23.09,0-30.79-12.4-30.79-20.1h-29.32c0,24.82,23.84,42.97,60.11,42.97,32.06,0,60.11-13.91,60.11-41.99v-2.47c0-15.65-11.18-27.32-29.3-30.05Z"/><path class="cls-1" d="M2560.67,954.83v34.85c0,.96-.78,1.74-1.74,1.74h-34.82c-.96,0-1.74-.78-1.74-1.74v-15.7c0-.96.78-1.74,1.74-1.74h15.68c.96,0,1.74-.78,1.74-1.74v-15.68c0-.96.78-1.74,1.74-1.74h15.68c.96,0,1.74.78,1.74,1.74Z"/></svg>